# Blender v3.0.0 OBJ File: ''
# www.blender.org
mtllib balloon_shield.mtl
o Cylinder
v 0.000000 1.279306 -0.109611
v 0.000000 1.279306 0.109612
v 0.169349 1.254724 0.109612
v 0.169349 1.254724 -0.109611
v 0.332191 1.181925 0.109612
v 0.332191 1.181925 -0.109611
v 0.482267 1.063704 0.109612
v 0.482267 1.063704 -0.109611
v 0.613810 0.904606 0.109612
v 0.613810 0.904606 -0.109611
v 0.721764 0.710744 0.109612
v 0.721764 0.710744 -0.109611
v 0.801982 0.489569 0.109611
v 0.801982 0.489569 -0.109611
v 0.851378 0.249580 0.109611
v 0.851378 0.249580 -0.109611
v 0.868058 -0.000000 0.109611
v 0.868058 0.000000 -0.109611
v 0.851378 -0.249580 0.109611
v 0.851378 -0.249580 -0.109611
v 0.801982 -0.489569 0.109611
v 0.801982 -0.489569 -0.109611
v 0.721764 -0.710744 0.109611
v 0.721764 -0.710744 -0.109612
v 0.613810 -0.904606 0.109611
v 0.613810 -0.904606 -0.109612
v 0.482267 -1.063704 0.109611
v 0.482267 -1.063704 -0.109612
v 0.332191 -1.181925 0.109611
v 0.332191 -1.181925 -0.109612
v 0.169349 -1.254724 0.109611
v 0.169349 -1.254724 -0.109612
v 0.000000 -1.279306 0.109611
v 0.000000 -1.279306 -0.109612
v -0.169349 -1.254724 0.109611
v -0.169349 -1.254724 -0.109612
v -0.332191 -1.181925 0.109611
v -0.332191 -1.181925 -0.109612
v -0.482267 -1.063704 0.109611
v -0.482267 -1.063704 -0.109612
v -0.613810 -0.904606 0.109611
v -0.613810 -0.904606 -0.109612
v -0.721763 -0.710744 0.109611
v -0.721763 -0.710744 -0.109612
v -0.801982 -0.489570 0.109611
v -0.801982 -0.489570 -0.109611
v -0.851378 -0.249580 0.109611
v -0.851378 -0.249580 -0.109611
v -0.868058 -0.000000 0.109611
v -0.868058 0.000000 -0.109611
v -0.851378 0.249580 0.109611
v -0.851378 0.249580 -0.109611
v -0.801981 0.489570 0.109611
v -0.801981 0.489570 -0.109611
v -0.721764 0.710744 0.109612
v -0.721764 0.710744 -0.109611
v -0.613810 0.904606 0.109612
v -0.613810 0.904606 -0.109611
v -0.482267 1.063704 0.109612
v -0.482267 1.063704 -0.109611
v -0.332191 1.181925 0.109612
v -0.332191 1.181925 -0.109611
v -0.169349 1.254724 0.109612
v -0.169349 1.254724 -0.109611
vt 0.207698 0.484956
vt 0.208417 0.484967
vt 0.208416 0.487715
vt 0.207698 0.487704
vt 0.208416 0.490464
vt 0.207697 0.490452
vt 0.208416 0.493212
vt 0.207697 0.493200
vt 0.208415 0.495960
vt 0.207697 0.495948
vt 0.208415 0.498708
vt 0.207696 0.498696
vt 0.208415 0.501456
vt 0.207696 0.501445
vt 0.208414 0.504204
vt 0.207696 0.504193
vt 0.208414 0.506952
vt 0.207695 0.506941
vt 0.208414 0.509700
vt 0.207695 0.509689
vt 0.208413 0.512449
vt 0.207695 0.512437
vt 0.208413 0.515197
vt 0.207694 0.515185
vt 0.208413 0.517945
vt 0.207694 0.517933
vt 0.208412 0.520693
vt 0.207694 0.520681
vt 0.208412 0.523441
vt 0.207693 0.523430
vt 0.208412 0.526189
vt 0.207693 0.526178
vt 0.208411 0.528937
vt 0.207693 0.528926
vt 0.208411 0.531685
vt 0.207692 0.531674
vt 0.208411 0.534434
vt 0.207692 0.534422
vt 0.208410 0.537182
vt 0.207692 0.537170
vt 0.208410 0.539930
vt 0.207691 0.539918
vt 0.208410 0.542678
vt 0.207691 0.542666
vt 0.208409 0.545426
vt 0.207691 0.545414
vt 0.235180 0.544055
vt 0.235587 0.544067
vt 0.235587 0.546653
vt 0.235180 0.546643
vt 0.207690 0.548163
vt 0.208409 0.548174
vt 0.208409 0.550922
vt 0.207690 0.550911
vt 0.208408 0.553670
vt 0.207690 0.553659
vt 0.208408 0.556418
vt 0.207689 0.556407
vt 0.208407 0.559167
vt 0.207689 0.559155
vt 0.208407 0.561915
vt 0.207688 0.561903
vt 0.208407 0.564663
vt 0.207688 0.564651
vt 0.208406 0.567411
vt 0.207688 0.567399
vt 0.551719 0.895038
vt 0.496846 0.902831
vt 0.441973 0.895038
vt 0.389209 0.871962
vt 0.340580 0.834489
vt 0.297958 0.784059
vt 0.262978 0.722609
vt 0.238426 0.652290
vt 0.222508 0.576641
vt 0.215575 0.497318
vt 0.220980 0.418207
vt 0.236986 0.342134
vt 0.262978 0.272027
vt 0.297958 0.210577
vt 0.340580 0.160146
vt 0.389209 0.122673
vt 0.441973 0.099597
vt 0.496846 0.091805
vt 0.551719 0.099597
vt 0.604484 0.122673
vt 0.653112 0.160146
vt 0.695735 0.210577
vt 0.730715 0.272027
vt 0.756706 0.342135
vt 0.772712 0.418207
vt 0.778117 0.497318
vt 0.771184 0.576640
vt 0.755266 0.652290
vt 0.730715 0.722609
vt 0.695735 0.784059
vt 0.653112 0.834489
vt 0.604484 0.871962
vt 0.208406 0.570159
vt 0.207687 0.570148
vt 0.208406 0.572907
vt 0.207687 0.572896
vt 0.496780 0.908955
vt 0.551380 0.901078
vt 0.603883 0.877752
vt 0.652269 0.839872
vt 0.694680 0.788895
vt 0.729486 0.726778
vt 0.755348 0.655910
vt 0.771275 0.579014
vt 0.776652 0.499044
vt 0.771275 0.419074
vt 0.755348 0.342178
vt 0.729486 0.271310
vt 0.694680 0.209193
vt 0.652269 0.158215
vt 0.603883 0.120335
vt 0.551380 0.097009
vt 0.496780 0.089133
vt 0.442180 0.097009
vt 0.389677 0.120335
vt 0.341291 0.158215
vt 0.298880 0.209193
vt 0.264075 0.271309
vt 0.238212 0.342178
vt 0.222285 0.419074
vt 0.216908 0.499044
vt 0.222285 0.579014
vt 0.238212 0.655910
vt 0.264075 0.726778
vt 0.298880 0.788895
vt 0.341291 0.839872
vt 0.389677 0.877752
vt 0.442180 0.901078
vn 0.1436 0.9896 0.0000
vn 0.4081 0.9129 0.0000
vn 0.6188 0.7855 0.0000
vn 0.7707 0.6372 0.0000
vn 0.8737 0.4865 0.0000
vn 0.9401 0.3410 0.0000
vn 0.9795 0.2016 0.0000
vn 0.9978 0.0667 0.0000
vn 0.9978 -0.0667 0.0000
vn 0.9795 -0.2016 0.0000
vn 0.9401 -0.3410 0.0000
vn 0.8737 -0.4865 0.0000
vn 0.7707 -0.6372 0.0000
vn 0.6188 -0.7855 0.0000
vn 0.4081 -0.9129 0.0000
vn 0.1436 -0.9896 0.0000
vn -0.1436 -0.9896 0.0000
vn -0.4081 -0.9129 0.0000
vn -0.6188 -0.7855 0.0000
vn -0.7707 -0.6372 0.0000
vn -0.8737 -0.4865 0.0000
vn -0.9401 -0.3410 0.0000
vn -0.9795 -0.2016 0.0000
vn -0.9978 -0.0667 0.0000
vn -0.9978 0.0667 0.0000
vn -0.9795 0.2016 0.0000
vn -0.9401 0.3410 0.0000
vn -0.8737 0.4865 0.0000
vn -0.7707 0.6372 0.0000
vn -0.6188 0.7855 0.0000
vn 0.0000 -0.0000 1.0000
vn -0.4081 0.9129 0.0000
vn -0.1436 0.9896 0.0000
vn 0.0000 0.0000 -1.0000
usemtl None
s 1
f 1/1/1 2/2/1 3/3/1 4/4/1
f 4/4/2 3/3/2 5/5/2 6/6/2
f 6/6/3 5/5/3 7/7/3 8/8/3
f 8/8/4 7/7/4 9/9/4 10/10/4
f 10/10/5 9/9/5 11/11/5 12/12/5
f 12/12/6 11/11/6 13/13/6 14/14/6
f 14/14/7 13/13/7 15/15/7 16/16/7
f 16/16/8 15/15/8 17/17/8 18/18/8
f 18/18/9 17/17/9 19/19/9 20/20/9
f 20/20/10 19/19/10 21/21/10 22/22/10
f 22/22/11 21/21/11 23/23/11 24/24/11
f 24/24/12 23/23/12 25/25/12 26/26/12
f 26/26/13 25/25/13 27/27/13 28/28/13
f 28/28/14 27/27/14 29/29/14 30/30/14
f 30/30/15 29/29/15 31/31/15 32/32/15
f 32/32/16 31/31/16 33/33/16 34/34/16
f 34/34/17 33/33/17 35/35/17 36/36/17
f 36/36/18 35/35/18 37/37/18 38/38/18
f 38/38/19 37/37/19 39/39/19 40/40/19
f 40/40/20 39/39/20 41/41/20 42/42/20
f 42/42/21 41/41/21 43/43/21 44/44/21
f 44/44/22 43/43/22 45/45/22 46/46/22
f 46/47/23 45/48/23 47/49/23 48/50/23
f 48/51/24 47/52/24 49/53/24 50/54/24
f 50/54/25 49/53/25 51/55/25 52/56/25
f 52/56/26 51/55/26 53/57/26 54/58/26
f 54/58/27 53/57/27 55/59/27 56/60/27
f 56/60/28 55/59/28 57/61/28 58/62/28
f 58/62/29 57/61/29 59/63/29 60/64/29
f 60/64/30 59/63/30 61/65/30 62/66/30
f 3/67/31 2/68/31 63/69/31 61/70/31 59/71/31 57/72/31 55/73/31 53/74/31 51/75/31 49/76/31 47/77/31 45/78/31 43/79/31 41/80/31 39/81/31 37/82/31 35/83/31 33/84/31 31/85/31 29/86/31 27/87/31 25/88/31 23/89/31 21/90/31 19/91/31 17/92/31 15/93/31 13/94/31 11/95/31 9/96/31 7/97/31 5/98/31
f 62/66/32 61/65/32 63/99/32 64/100/32
f 64/100/33 63/99/33 2/101/33 1/102/33
f 1/103/34 4/104/34 6/105/34 8/106/34 10/107/34 12/108/34 14/109/34 16/110/34 18/111/34 20/112/34 22/113/34 24/114/34 26/115/34 28/116/34 30/117/34 32/118/34 34/119/34 36/120/34 38/121/34 40/122/34 42/123/34 44/124/34 46/125/34 48/126/34 50/127/34 52/128/34 54/129/34 56/130/34 58/131/34 60/132/34 62/133/34 64/134/34
