# Blender v3.0.0 OBJ File: 'coin.blend'
# www.blender.org
mtllib coin.mtl
o Cylinder
v 0.000000 1.000000 -0.126272
v 0.000000 1.000000 0.126273
v 0.195090 0.980785 -0.126272
v 0.195090 0.980785 0.126273
v 0.382683 0.923880 -0.126272
v 0.382683 0.923880 0.126273
v 0.555570 0.831470 -0.126272
v 0.555570 0.831470 0.126273
v 0.707107 0.707107 -0.126272
v 0.707107 0.707107 0.126273
v 0.831470 0.555570 -0.126272
v 0.831470 0.555570 0.126273
v 0.923880 0.382683 -0.126272
v 0.923880 0.382683 0.126272
v 0.980785 0.195090 -0.126272
v 0.980785 0.195090 0.126272
v 1.000000 -0.000000 -0.126272
v 1.000000 -0.000000 0.126272
v 0.980785 -0.195090 -0.126272
v 0.980785 -0.195090 0.126272
v 0.923880 -0.382683 -0.126272
v 0.923880 -0.382683 0.126272
v 0.831470 -0.555570 -0.126273
v 0.831470 -0.555570 0.126272
v 0.707107 -0.707107 -0.126273
v 0.707107 -0.707107 0.126272
v 0.555570 -0.831470 -0.126273
v 0.555570 -0.831470 0.126272
v 0.382683 -0.923880 -0.126273
v 0.382683 -0.923880 0.126272
v 0.195090 -0.980785 -0.126273
v 0.195090 -0.980785 0.126272
v -0.000000 -1.000000 -0.126273
v -0.000000 -1.000000 0.126272
v -0.195090 -0.980785 -0.126273
v -0.195090 -0.980785 0.126272
v -0.382683 -0.923880 -0.126273
v -0.382683 -0.923880 0.126272
v -0.555570 -0.831470 -0.126273
v -0.555570 -0.831470 0.126272
v -0.707107 -0.707107 -0.126273
v -0.707107 -0.707107 0.126272
v -0.831469 -0.555570 -0.126273
v -0.831469 -0.555570 0.126272
v -0.923880 -0.382684 -0.126272
v -0.923880 -0.382684 0.126272
v -0.980785 -0.195090 -0.126272
v -0.980785 -0.195090 0.126272
v -1.000000 0.000000 -0.126272
v -1.000000 0.000000 0.126272
v -0.980785 0.195090 -0.126272
v -0.980785 0.195090 0.126272
v -0.923879 0.382684 -0.126272
v -0.923879 0.382684 0.126272
v -0.831470 0.555570 -0.126272
v -0.831470 0.555570 0.126273
v -0.707107 0.707107 -0.126272
v -0.707107 0.707107 0.126273
v -0.555570 0.831470 -0.126272
v -0.555570 0.831470 0.126273
v -0.382683 0.923880 -0.126272
v -0.382683 0.923880 0.126273
v -0.195090 0.980785 -0.126272
v -0.195090 0.980785 0.126273
vt 0.011788 0.461703
vt 0.017252 0.461714
vt 0.017250 0.464462
vt 0.011786 0.464451
vt 0.017247 0.467211
vt 0.011783 0.467199
vt 0.017245 0.469959
vt 0.011780 0.469947
vt 0.017242 0.472707
vt 0.011778 0.472695
vt 0.017239 0.475455
vt 0.011775 0.475443
vt 0.017237 0.478203
vt 0.011772 0.478192
vt 0.017234 0.480951
vt 0.011770 0.480940
vt 0.017232 0.483699
vt 0.011767 0.483688
vt 0.017229 0.486447
vt 0.011765 0.486436
vt 0.017226 0.489196
vt 0.011762 0.489184
vt 0.017224 0.491944
vt 0.011759 0.491932
vt 0.017221 0.494692
vt 0.011757 0.494680
vt 0.017219 0.497440
vt 0.011754 0.497428
vt 0.017216 0.500188
vt 0.011752 0.500177
vt 0.017213 0.502936
vt 0.011749 0.502925
vt 0.017211 0.505684
vt 0.011746 0.505673
vt 0.017208 0.508432
vt 0.011744 0.508421
vt 0.017206 0.511181
vt 0.011741 0.511169
vt 0.017203 0.513929
vt 0.011739 0.513917
vt 0.017200 0.516677
vt 0.011736 0.516665
vt 0.017198 0.519425
vt 0.011733 0.519413
vt 0.017195 0.522173
vt 0.011731 0.522161
vt 0.017193 0.524921
vt 0.011728 0.524910
vt 0.017190 0.527669
vt 0.011726 0.527658
vt 0.017187 0.530417
vt 0.011723 0.530406
vt 0.017185 0.533165
vt 0.011720 0.533154
vt 0.017182 0.535914
vt 0.011718 0.535902
vt 0.017180 0.538662
vt 0.011715 0.538650
vt 0.017177 0.541410
vt 0.011713 0.541398
vt 0.017174 0.544158
vt 0.011710 0.544146
vt 0.592136 0.963573
vt 0.499044 0.972714
vt 0.405951 0.963573
vt 0.316437 0.936503
vt 0.233939 0.892545
vt 0.161630 0.833386
vt 0.102287 0.761301
vt 0.058191 0.679059
vt 0.031037 0.589823
vt 0.021868 0.497019
vt 0.031037 0.404216
vt 0.058191 0.314978
vt 0.102287 0.232737
vt 0.161630 0.160652
vt 0.233939 0.101493
vt 0.316437 0.057535
vt 0.405951 0.030465
vt 0.499044 0.021324
vt 0.592136 0.030465
vt 0.681651 0.057535
vt 0.764148 0.101493
vt 0.836458 0.160652
vt 0.895801 0.232737
vt 0.939896 0.314979
vt 0.967050 0.404216
vt 0.976219 0.497019
vt 0.967050 0.589822
vt 0.939896 0.679059
vt 0.895801 0.761301
vt 0.836458 0.833386
vt 0.764148 0.892545
vt 0.681651 0.936503
vt 0.017172 0.546906
vt 0.011707 0.546895
vt 0.017169 0.549654
vt 0.011705 0.549643
vt 0.498932 0.979898
vt 0.591561 0.970658
vt 0.680631 0.943295
vt 0.762718 0.898859
vt 0.834668 0.839059
vt 0.893716 0.766192
vt 0.937592 0.683059
vt 0.964611 0.592854
vt 0.973734 0.499044
vt 0.964611 0.405234
vt 0.937592 0.315029
vt 0.893716 0.231896
vt 0.834668 0.159029
vt 0.762718 0.099228
vt 0.680631 0.054792
vt 0.591561 0.027429
vt 0.498932 0.018190
vt 0.406302 0.027429
vt 0.317232 0.054792
vt 0.235145 0.099228
vt 0.163195 0.159029
vt 0.104148 0.231895
vt 0.060271 0.315029
vt 0.033252 0.405234
vt 0.024129 0.499044
vt 0.033252 0.592854
vt 0.060271 0.683059
vt 0.104148 0.766192
vt 0.163195 0.839059
vt 0.235145 0.898859
vt 0.317232 0.943295
vt 0.406302 0.970658
vn 0.0980 0.9952 0.0000
vn 0.2903 0.9569 0.0000
vn 0.4714 0.8819 0.0000
vn 0.6344 0.7730 0.0000
vn 0.7730 0.6344 0.0000
vn 0.8819 0.4714 0.0000
vn 0.9569 0.2903 0.0000
vn 0.9952 0.0980 0.0000
vn 0.9952 -0.0980 0.0000
vn 0.9569 -0.2903 0.0000
vn 0.8819 -0.4714 0.0000
vn 0.7730 -0.6344 0.0000
vn 0.6344 -0.7730 0.0000
vn 0.4714 -0.8819 0.0000
vn 0.2903 -0.9569 0.0000
vn 0.0980 -0.9952 0.0000
vn -0.0980 -0.9952 0.0000
vn -0.2903 -0.9569 0.0000
vn -0.4714 -0.8819 0.0000
vn -0.6344 -0.7730 0.0000
vn -0.7730 -0.6344 0.0000
vn -0.8819 -0.4714 0.0000
vn -0.9569 -0.2903 0.0000
vn -0.9952 -0.0980 -0.0000
vn -0.9952 0.0980 0.0000
vn -0.9569 0.2903 0.0000
vn -0.8819 0.4714 0.0000
vn -0.7730 0.6344 0.0000
vn -0.6344 0.7730 0.0000
vn -0.4714 0.8819 0.0000
vn 0.0000 -0.0000 1.0000
vn -0.2903 0.9569 0.0000
vn -0.0980 0.9952 0.0000
vn 0.0000 0.0000 -1.0000
usemtl None
s off
f 1/1/1 2/2/1 4/3/1 3/4/1
f 3/4/2 4/3/2 6/5/2 5/6/2
f 5/6/3 6/5/3 8/7/3 7/8/3
f 7/8/4 8/7/4 10/9/4 9/10/4
f 9/10/5 10/9/5 12/11/5 11/12/5
f 11/12/6 12/11/6 14/13/6 13/14/6
f 13/14/7 14/13/7 16/15/7 15/16/7
f 15/16/8 16/15/8 18/17/8 17/18/8
f 17/18/9 18/17/9 20/19/9 19/20/9
f 19/20/10 20/19/10 22/21/10 21/22/10
f 21/22/11 22/21/11 24/23/11 23/24/11
f 23/24/12 24/23/12 26/25/12 25/26/12
f 25/26/13 26/25/13 28/27/13 27/28/13
f 27/28/14 28/27/14 30/29/14 29/30/14
f 29/30/15 30/29/15 32/31/15 31/32/15
f 31/32/16 32/31/16 34/33/16 33/34/16
f 33/34/17 34/33/17 36/35/17 35/36/17
f 35/36/18 36/35/18 38/37/18 37/38/18
f 37/38/19 38/37/19 40/39/19 39/40/19
f 39/40/20 40/39/20 42/41/20 41/42/20
f 41/42/21 42/41/21 44/43/21 43/44/21
f 43/44/22 44/43/22 46/45/22 45/46/22
f 45/46/23 46/45/23 48/47/23 47/48/23
f 47/48/24 48/47/24 50/49/24 49/50/24
f 49/50/25 50/49/25 52/51/25 51/52/25
f 51/52/26 52/51/26 54/53/26 53/54/26
f 53/54/27 54/53/27 56/55/27 55/56/27
f 55/56/28 56/55/28 58/57/28 57/58/28
f 57/58/29 58/57/29 60/59/29 59/60/29
f 59/60/30 60/59/30 62/61/30 61/62/30
f 4/63/31 2/64/31 64/65/31 62/66/31 60/67/31 58/68/31 56/69/31 54/70/31 52/71/31 50/72/31 48/73/31 46/74/31 44/75/31 42/76/31 40/77/31 38/78/31 36/79/31 34/80/31 32/81/31 30/82/31 28/83/31 26/84/31 24/85/31 22/86/31 20/87/31 18/88/31 16/89/31 14/90/31 12/91/31 10/92/31 8/93/31 6/94/31
f 61/62/32 62/61/32 64/95/32 63/96/32
f 63/96/33 64/95/33 2/97/33 1/98/33
f 1/99/34 3/100/34 5/101/34 7/102/34 9/103/34 11/104/34 13/105/34 15/106/34 17/107/34 19/108/34 21/109/34 23/110/34 25/111/34 27/112/34 29/113/34 31/114/34 33/115/34 35/116/34 37/117/34 39/118/34 41/119/34 43/120/34 45/121/34 47/122/34 49/123/34 51/124/34 53/125/34 55/126/34 57/127/34 59/128/34 61/129/34 63/130/34
